<svg xmlns="http://www.w3.org/2000/svg" version="1.1" xmlns:xlink="http://www.w3.org/1999/xlink" xmlns:svgjs="http://svgjs.dev/svgjs" width="1440" height="560" preserveAspectRatio="none" viewBox="0 0 1440 560"><g mask="url(&quot;#SvgjsMask1024&quot;)" fill="none"><rect width="1440" height="560" x="0" y="0" fill="rgba(40, 40, 40, 1)"></rect><g mask="url(&quot;#SvgjsMask1025&quot;)"><path d="M262.5 237.5L287.5 212.5L312.5 212.5L337.5 212.5L362.5 212.5M187.5 237.5L212.5 262.5L237.5 262.5L262.5 262.5L287.5 262.5M512.5 237.5L537.5 212.5L562.5 212.5L587.5 212.5L612.5 212.5M562.5 237.5L587.5 262.5L612.5 262.5L637.5 262.5L662.5 262.5M212.5 237.5L237.5 212.5M162.5 237.5L187.5 262.5M-12.5 287.5L12.5 287.5L37.5 287.5L62.5 287.5L87.5 287.5L112.5 262.5L137.5 262.5L162.5 237.5L187.5 237.5L212.5 237.5L237.5 237.5L262.5 237.5L287.5 237.5L312.5 237.5L337.5 237.5L362.5 237.5L387.5 237.5L412.5 237.5L437.5 237.5L462.5 237.5L487.5 237.5L512.5 237.5L537.5 237.5L562.5 237.5L587.5 237.5L612.5 237.5" stroke="rgba(3, 255, 153, 1)" stroke-width="4.17"></path><path d="M606.25 237.5 a6.25 6.25 0 1 0 12.5 0 a6.25 6.25 0 1 0 -12.5 0zM356.25 212.5 a6.25 6.25 0 1 0 12.5 0 a6.25 6.25 0 1 0 -12.5 0zM281.25 262.5 a6.25 6.25 0 1 0 12.5 0 a6.25 6.25 0 1 0 -12.5 0zM606.25 212.5 a6.25 6.25 0 1 0 12.5 0 a6.25 6.25 0 1 0 -12.5 0zM656.25 262.5 a6.25 6.25 0 1 0 12.5 0 a6.25 6.25 0 1 0 -12.5 0zM231.25 212.5 a6.25 6.25 0 1 0 12.5 0 a6.25 6.25 0 1 0 -12.5 0zM181.25 262.5 a6.25 6.25 0 1 0 12.5 0 a6.25 6.25 0 1 0 -12.5 0z" fill="rgba(3, 255, 153, 1)"></path><path d="M-12.5 262.5L12.5 262.5L37.5 262.5" stroke="rgba(255, 101, 47, 1)" stroke-width="4.17"></path><path d="M31.25 262.5 a6.25 6.25 0 1 0 12.5 0 a6.25 6.25 0 1 0 -12.5 0z" fill="rgba(255, 101, 47, 1)"></path><path d="M362.5 312.5L387.5 337.5L412.5 337.5L437.5 337.5L462.5 337.5M62.5 337.5L87.5 312.5L112.5 312.5M137.5 337.5L162.5 312.5L187.5 312.5L212.5 312.5L237.5 312.5L262.5 287.5L287.5 287.5L312.5 287.5L337.5 287.5L362.5 287.5M437.5 312.5L462.5 287.5L487.5 287.5L512.5 287.5L537.5 287.5M387.5 312.5L412.5 287.5M-12.5 312.5L12.5 312.5L37.5 312.5L62.5 337.5L87.5 337.5L112.5 337.5L137.5 337.5L162.5 337.5L187.5 337.5L212.5 337.5L237.5 337.5L262.5 312.5L287.5 312.5L312.5 312.5L337.5 312.5L362.5 312.5L387.5 312.5L412.5 312.5L437.5 312.5L462.5 312.5L487.5 312.5L512.5 337.5L537.5 337.5" stroke="rgba(254, 228, 0, 1)" stroke-width="4.17"></path><path d="M531.25 337.5 a6.25 6.25 0 1 0 12.5 0 a6.25 6.25 0 1 0 -12.5 0zM456.25 337.5 a6.25 6.25 0 1 0 12.5 0 a6.25 6.25 0 1 0 -12.5 0zM106.25 312.5 a6.25 6.25 0 1 0 12.5 0 a6.25 6.25 0 1 0 -12.5 0zM356.25 287.5 a6.25 6.25 0 1 0 12.5 0 a6.25 6.25 0 1 0 -12.5 0zM531.25 287.5 a6.25 6.25 0 1 0 12.5 0 a6.25 6.25 0 1 0 -12.5 0zM406.25 287.5 a6.25 6.25 0 1 0 12.5 0 a6.25 6.25 0 1 0 -12.5 0z" fill="rgba(254, 228, 0, 1)"></path><path d="M-12.5 237.5L12.5 237.5L37.5 237.5" stroke="rgba(3, 255, 153, 1)" stroke-width="4.17"></path><path d="M31.25 237.5 a6.25 6.25 0 1 0 12.5 0 a6.25 6.25 0 1 0 -12.5 0z" fill="rgba(3, 255, 153, 1)"></path><path d="M112.5 362.5L137.5 387.5M187.5 387.5L212.5 362.5L237.5 362.5L262.5 362.5M412.5 387.5L437.5 362.5L462.5 362.5L487.5 337.5M262.5 387.5L287.5 412.5L312.5 412.5L337.5 412.5M162.5 387.5L187.5 362.5M-12.5 337.5L12.5 337.5L37.5 337.5L62.5 362.5L87.5 362.5L112.5 362.5L137.5 362.5L162.5 387.5L187.5 387.5L212.5 387.5L237.5 387.5L262.5 387.5L287.5 387.5L312.5 387.5L337.5 387.5L362.5 387.5L387.5 387.5L412.5 387.5L437.5 387.5L462.5 387.5L487.5 387.5L512.5 387.5" stroke="rgba(254, 228, 0, 1)" stroke-width="4.17"></path><path d="M506.25 387.5 a6.25 6.25 0 1 0 12.5 0 a6.25 6.25 0 1 0 -12.5 0zM131.25 387.5 a6.25 6.25 0 1 0 12.5 0 a6.25 6.25 0 1 0 -12.5 0zM256.25 362.5 a6.25 6.25 0 1 0 12.5 0 a6.25 6.25 0 1 0 -12.5 0zM481.25 337.5 a6.25 6.25 0 1 0 12.5 0 a6.25 6.25 0 1 0 -12.5 0zM331.25 412.5 a6.25 6.25 0 1 0 12.5 0 a6.25 6.25 0 1 0 -12.5 0zM181.25 362.5 a6.25 6.25 0 1 0 12.5 0 a6.25 6.25 0 1 0 -12.5 0z" fill="rgba(254, 228, 0, 1)"></path><path d="M387.5 162.5L412.5 162.5L437.5 162.5L462.5 162.5L487.5 162.5L512.5 162.5M362.5 162.5L387.5 187.5L412.5 212.5L437.5 212.5L462.5 212.5L487.5 212.5M262.5 162.5L287.5 187.5L312.5 187.5L337.5 187.5L362.5 187.5M612.5 187.5L637.5 162.5L662.5 162.5M212.5 187.5L237.5 187.5L262.5 187.5M587.5 187.5L612.5 162.5M-12.5 212.5L12.5 212.5L37.5 212.5L62.5 212.5L87.5 212.5L112.5 212.5L137.5 212.5L162.5 212.5L187.5 212.5L212.5 187.5L237.5 162.5L262.5 162.5L287.5 162.5L312.5 162.5L337.5 162.5L362.5 162.5L387.5 162.5L412.5 187.5L437.5 187.5L462.5 187.5L487.5 187.5L512.5 187.5L537.5 187.5L562.5 187.5L587.5 187.5L612.5 187.5L637.5 187.5" stroke="rgba(3, 255, 153, 1)" stroke-width="4.17"></path><path d="M631.25 187.5 a6.25 6.25 0 1 0 12.5 0 a6.25 6.25 0 1 0 -12.5 0zM506.25 162.5 a6.25 6.25 0 1 0 12.5 0 a6.25 6.25 0 1 0 -12.5 0zM481.25 212.5 a6.25 6.25 0 1 0 12.5 0 a6.25 6.25 0 1 0 -12.5 0zM356.25 187.5 a6.25 6.25 0 1 0 12.5 0 a6.25 6.25 0 1 0 -12.5 0zM656.25 162.5 a6.25 6.25 0 1 0 12.5 0 a6.25 6.25 0 1 0 -12.5 0zM256.25 187.5 a6.25 6.25 0 1 0 12.5 0 a6.25 6.25 0 1 0 -12.5 0zM606.25 162.5 a6.25 6.25 0 1 0 12.5 0 a6.25 6.25 0 1 0 -12.5 0z" fill="rgba(3, 255, 153, 1)"></path><path d="M287.5 437.5L312.5 462.5L337.5 462.5M412.5 412.5L437.5 437.5L462.5 437.5M487.5 412.5L512.5 437.5L537.5 437.5M112.5 412.5L137.5 437.5L162.5 437.5L187.5 437.5M237.5 412.5L262.5 412.5M587.5 412.5L612.5 437.5L637.5 437.5M-12.5 362.5L12.5 362.5L37.5 362.5L62.5 387.5L87.5 412.5L112.5 412.5L137.5 412.5L162.5 412.5L187.5 412.5L212.5 412.5L237.5 412.5L262.5 437.5L287.5 437.5L312.5 437.5L337.5 437.5L362.5 412.5L387.5 412.5L412.5 412.5L437.5 412.5L462.5 412.5L487.5 412.5L512.5 412.5L537.5 412.5L562.5 412.5L587.5 412.5L612.5 412.5L637.5 412.5" stroke="rgba(255, 101, 47, 1)" stroke-width="4.17"></path><path d="M631.25 412.5 a6.25 6.25 0 1 0 12.5 0 a6.25 6.25 0 1 0 -12.5 0zM331.25 462.5 a6.25 6.25 0 1 0 12.5 0 a6.25 6.25 0 1 0 -12.5 0zM456.25 437.5 a6.25 6.25 0 1 0 12.5 0 a6.25 6.25 0 1 0 -12.5 0zM531.25 437.5 a6.25 6.25 0 1 0 12.5 0 a6.25 6.25 0 1 0 -12.5 0zM181.25 437.5 a6.25 6.25 0 1 0 12.5 0 a6.25 6.25 0 1 0 -12.5 0zM256.25 412.5 a6.25 6.25 0 1 0 12.5 0 a6.25 6.25 0 1 0 -12.5 0zM631.25 437.5 a6.25 6.25 0 1 0 12.5 0 a6.25 6.25 0 1 0 -12.5 0z" fill="rgba(255, 101, 47, 1)"></path><path d="M337.5 137.5L362.5 112.5L387.5 87.5L412.5 87.5M512.5 137.5L537.5 112.5M387.5 137.5L412.5 112.5L437.5 112.5L462.5 112.5L487.5 112.5M537.5 137.5L562.5 162.5M287.5 137.5L312.5 112.5L337.5 112.5L362.5 87.5M262.5 137.5L287.5 112.5M-12.5 187.5L12.5 187.5L37.5 187.5L62.5 187.5L87.5 187.5L112.5 187.5L137.5 187.5L162.5 187.5L187.5 187.5L212.5 162.5L237.5 137.5L262.5 137.5L287.5 137.5L312.5 137.5L337.5 137.5L362.5 137.5L387.5 137.5L412.5 137.5L437.5 137.5L462.5 137.5L487.5 137.5L512.5 137.5L537.5 137.5L562.5 137.5L587.5 137.5L612.5 137.5" stroke="rgba(255, 101, 47, 1)" stroke-width="4.17"></path><path d="M606.25 137.5 a6.25 6.25 0 1 0 12.5 0 a6.25 6.25 0 1 0 -12.5 0zM406.25 87.5 a6.25 6.25 0 1 0 12.5 0 a6.25 6.25 0 1 0 -12.5 0zM531.25 112.5 a6.25 6.25 0 1 0 12.5 0 a6.25 6.25 0 1 0 -12.5 0zM481.25 112.5 a6.25 6.25 0 1 0 12.5 0 a6.25 6.25 0 1 0 -12.5 0zM556.25 162.5 a6.25 6.25 0 1 0 12.5 0 a6.25 6.25 0 1 0 -12.5 0zM356.25 87.5 a6.25 6.25 0 1 0 12.5 0 a6.25 6.25 0 1 0 -12.5 0zM281.25 112.5 a6.25 6.25 0 1 0 12.5 0 a6.25 6.25 0 1 0 -12.5 0z" fill="rgba(255, 101, 47, 1)"></path><path d="M12.5 387.5L37.5 412.5L62.5 412.5L87.5 437.5L112.5 437.5M-12.5 387.5L12.5 387.5L37.5 387.5" stroke="rgba(255, 101, 47, 1)" stroke-width="4.17"></path><path d="M31.25 387.5 a6.25 6.25 0 1 0 12.5 0 a6.25 6.25 0 1 0 -12.5 0zM106.25 437.5 a6.25 6.25 0 1 0 12.5 0 a6.25 6.25 0 1 0 -12.5 0z" fill="rgba(255, 101, 47, 1)"></path><path d="M37.5 162.5L62.5 137.5L87.5 137.5M112.5 162.5L137.5 137.5L162.5 137.5M-12.5 162.5L12.5 162.5L37.5 162.5L62.5 162.5L87.5 162.5L112.5 162.5L137.5 162.5L162.5 162.5" stroke="rgba(255, 101, 47, 1)" stroke-width="4.17"></path><path d="M156.25 162.5 a6.25 6.25 0 1 0 12.5 0 a6.25 6.25 0 1 0 -12.5 0zM81.25 137.5 a6.25 6.25 0 1 0 12.5 0 a6.25 6.25 0 1 0 -12.5 0zM156.25 137.5 a6.25 6.25 0 1 0 12.5 0 a6.25 6.25 0 1 0 -12.5 0z" fill="rgba(255, 101, 47, 1)"></path></g></g><defs><mask id="SvgjsMask1024"><rect width="1440" height="560" fill="#ffffff"></rect></mask><mask id="SvgjsMask1025"><rect width="1440" height="560" fill="white"></rect><path d="M609.37 237.5 a3.13 3.13 0 1 0 6.26 0 a3.13 3.13 0 1 0 -6.26 0zM359.37 212.5 a3.13 3.13 0 1 0 6.26 0 a3.13 3.13 0 1 0 -6.26 0zM284.37 262.5 a3.13 3.13 0 1 0 6.26 0 a3.13 3.13 0 1 0 -6.26 0zM609.37 212.5 a3.13 3.13 0 1 0 6.26 0 a3.13 3.13 0 1 0 -6.26 0zM659.37 262.5 a3.13 3.13 0 1 0 6.26 0 a3.13 3.13 0 1 0 -6.26 0zM234.37 212.5 a3.13 3.13 0 1 0 6.26 0 a3.13 3.13 0 1 0 -6.26 0zM184.37 262.5 a3.13 3.13 0 1 0 6.26 0 a3.13 3.13 0 1 0 -6.26 0z" fill="black"></path><path d="M34.37 262.5 a3.13 3.13 0 1 0 6.26 0 a3.13 3.13 0 1 0 -6.26 0z" fill="black"></path><path d="M534.37 337.5 a3.13 3.13 0 1 0 6.26 0 a3.13 3.13 0 1 0 -6.26 0zM459.37 337.5 a3.13 3.13 0 1 0 6.26 0 a3.13 3.13 0 1 0 -6.26 0zM109.37 312.5 a3.13 3.13 0 1 0 6.26 0 a3.13 3.13 0 1 0 -6.26 0zM359.37 287.5 a3.13 3.13 0 1 0 6.26 0 a3.13 3.13 0 1 0 -6.26 0zM534.37 287.5 a3.13 3.13 0 1 0 6.26 0 a3.13 3.13 0 1 0 -6.26 0zM409.37 287.5 a3.13 3.13 0 1 0 6.26 0 a3.13 3.13 0 1 0 -6.26 0z" fill="black"></path><path d="M34.37 237.5 a3.13 3.13 0 1 0 6.26 0 a3.13 3.13 0 1 0 -6.26 0z" fill="black"></path><path d="M509.37 387.5 a3.13 3.13 0 1 0 6.26 0 a3.13 3.13 0 1 0 -6.26 0zM134.37 387.5 a3.13 3.13 0 1 0 6.26 0 a3.13 3.13 0 1 0 -6.26 0zM259.37 362.5 a3.13 3.13 0 1 0 6.26 0 a3.13 3.13 0 1 0 -6.26 0zM484.37 337.5 a3.13 3.13 0 1 0 6.26 0 a3.13 3.13 0 1 0 -6.26 0zM334.37 412.5 a3.13 3.13 0 1 0 6.26 0 a3.13 3.13 0 1 0 -6.26 0zM184.37 362.5 a3.13 3.13 0 1 0 6.26 0 a3.13 3.13 0 1 0 -6.26 0z" fill="black"></path><path d="M634.37 187.5 a3.13 3.13 0 1 0 6.26 0 a3.13 3.13 0 1 0 -6.26 0zM509.37 162.5 a3.13 3.13 0 1 0 6.26 0 a3.13 3.13 0 1 0 -6.26 0zM484.37 212.5 a3.13 3.13 0 1 0 6.26 0 a3.13 3.13 0 1 0 -6.26 0zM359.37 187.5 a3.13 3.13 0 1 0 6.26 0 a3.13 3.13 0 1 0 -6.26 0zM659.37 162.5 a3.13 3.13 0 1 0 6.26 0 a3.13 3.13 0 1 0 -6.26 0zM259.37 187.5 a3.13 3.13 0 1 0 6.26 0 a3.13 3.13 0 1 0 -6.26 0zM609.37 162.5 a3.13 3.13 0 1 0 6.26 0 a3.13 3.13 0 1 0 -6.26 0z" fill="black"></path><path d="M634.37 412.5 a3.13 3.13 0 1 0 6.26 0 a3.13 3.13 0 1 0 -6.26 0zM334.37 462.5 a3.13 3.13 0 1 0 6.26 0 a3.13 3.13 0 1 0 -6.26 0zM459.37 437.5 a3.13 3.13 0 1 0 6.26 0 a3.13 3.13 0 1 0 -6.26 0zM534.37 437.5 a3.13 3.13 0 1 0 6.26 0 a3.13 3.13 0 1 0 -6.26 0zM184.37 437.5 a3.13 3.13 0 1 0 6.26 0 a3.13 3.13 0 1 0 -6.26 0zM259.37 412.5 a3.13 3.13 0 1 0 6.26 0 a3.13 3.13 0 1 0 -6.26 0zM634.37 437.5 a3.13 3.13 0 1 0 6.26 0 a3.13 3.13 0 1 0 -6.26 0z" fill="black"></path><path d="M609.37 137.5 a3.13 3.13 0 1 0 6.26 0 a3.13 3.13 0 1 0 -6.26 0zM409.37 87.5 a3.13 3.13 0 1 0 6.26 0 a3.13 3.13 0 1 0 -6.26 0zM534.37 112.5 a3.13 3.13 0 1 0 6.26 0 a3.13 3.13 0 1 0 -6.26 0zM484.37 112.5 a3.13 3.13 0 1 0 6.26 0 a3.13 3.13 0 1 0 -6.26 0zM559.37 162.5 a3.13 3.13 0 1 0 6.26 0 a3.13 3.13 0 1 0 -6.26 0zM359.37 87.5 a3.13 3.13 0 1 0 6.26 0 a3.13 3.13 0 1 0 -6.26 0zM284.37 112.5 a3.13 3.13 0 1 0 6.26 0 a3.13 3.13 0 1 0 -6.26 0z" fill="black"></path><path d="M34.37 387.5 a3.13 3.13 0 1 0 6.26 0 a3.13 3.13 0 1 0 -6.26 0zM109.37 437.5 a3.13 3.13 0 1 0 6.26 0 a3.13 3.13 0 1 0 -6.26 0z" fill="black"></path><path d="M159.37 162.5 a3.13 3.13 0 1 0 6.26 0 a3.13 3.13 0 1 0 -6.26 0zM84.37 137.5 a3.13 3.13 0 1 0 6.26 0 a3.13 3.13 0 1 0 -6.26 0zM159.37 137.5 a3.13 3.13 0 1 0 6.26 0 a3.13 3.13 0 1 0 -6.26 0z" fill="black"></path></mask></defs></svg>