<svg xmlns="http://www.w3.org/2000/svg" version="1.1" xmlns:xlink="http://www.w3.org/1999/xlink" xmlns:svgjs="http://svgjs.dev/svgjs" width="1440" height="560" preserveAspectRatio="none" viewBox="0 0 1440 560"><g mask="url(&quot;#SvgjsMask1055&quot;)" fill="none"><rect width="1440" height="560" x="0" y="0" fill="rgba(40, 40, 40, 1)"></rect><path d="M824.88 423.67 a34.31 34.31 0 1 0 68.62 0 a34.31 34.31 0 1 0 -68.62 0z" stroke="rgba(3, 255, 153, 1)"></path><path d="M591.96 516.84a50.07 50.07 0 1 0-45.51-89.2z" stroke="rgba(3, 255, 153, 1)"></path><path d="M565.35 297.6 a36.62 36.62 0 1 0 73.24 0 a36.62 36.62 0 1 0 -73.24 0z" fill="rgba(3, 255, 153, 1)"></path><path d="M820.27 110.89L869.41 110.89L869.41 160.03L820.27 160.03z" stroke="rgba(254, 228, 0, 1)"></path><path d="M484.34 74.45a46.02 46.02 0 1 0-70.32-59.39z" stroke="rgba(3, 255, 153, 1)"></path><path d="M1052.62 56.25a19.5 19.5 0 1 0 36.38 14.05z" stroke="rgba(255, 101, 47, 1)"></path><path d="M98.38 239.71L123.35 239.71L123.35 287.61L98.38 287.61z" fill="rgba(254, 228, 0, 1)"></path><path d="M13.42 364.27 a24.86 24.86 0 1 0 49.72 0 a24.86 24.86 0 1 0 -49.72 0z" fill="rgba(3, 255, 153, 1)"></path><path d="M1363.28 155.84L1371.21 155.84L1371.21 157.91L1363.28 157.91z" stroke="rgba(3, 255, 153, 1)"></path><path d="M890.21 244.57 a24.33 24.33 0 1 0 48.66 0 a24.33 24.33 0 1 0 -48.66 0z" fill="rgba(3, 255, 153, 1)"></path><path d="M249.08 12.09a53.59 53.59 0 1 0-33.89 101.68z" fill="rgba(255, 101, 47, 1)"></path><path d="M1292.83 232.95L1306.52 232.95L1306.52 246.64L1292.83 246.64z" stroke="rgba(254, 228, 0, 1)"></path><path d="M256.52 280.75a40.04 40.04 0 1 0-64.91-46.9z" stroke="rgba(3, 255, 153, 1)"></path><path d="M680.4 419.46a2.83 2.83 0 1 0-5.54-1.16z" fill="rgba(255, 101, 47, 1)"></path><path d="M92.18 27.51L98.37 27.51L98.37 78.11L92.18 78.11z" fill="rgba(255, 101, 47, 1)"></path><path d="M802.08 7.2 a38.31 38.31 0 1 0 76.62 0 a38.31 38.31 0 1 0 -76.62 0z" fill="rgba(255, 101, 47, 1)"></path><path d="M1085.87 35.27 a43.9 43.9 0 1 0 87.8 0 a43.9 43.9 0 1 0 -87.8 0z" fill="rgba(3, 255, 153, 1)"></path><path d="M1401.46 247.46L1438.61 247.46L1438.61 284.61L1401.46 284.61z" fill="rgba(3, 255, 153, 1)"></path><path d="M1358.07 141.26L1402.76 141.26L1402.76 185.95L1358.07 185.95z" stroke="rgba(3, 255, 153, 1)"></path><path d="M408.51 481.06 a15.93 15.93 0 1 0 31.86 0 a15.93 15.93 0 1 0 -31.86 0z" fill="rgba(3, 255, 153, 1)"></path><path d="M481.68 28.83a17.58 17.58 0 1 0 19.83-29.04z" stroke="rgba(3, 255, 153, 1)"></path><path d="M847.98 282.68L857 282.68L857 284.47L847.98 284.47z" fill="rgba(254, 228, 0, 1)"></path><path d="M197.06 364.83 a4.9 4.9 0 1 0 9.8 0 a4.9 4.9 0 1 0 -9.8 0z" stroke="rgba(254, 228, 0, 1)"></path><path d="M560.38 449.1a42.91 42.91 0 1 0 59.54-61.8z" stroke="rgba(3, 255, 153, 1)"></path><path d="M852.92 104.08L908.73 104.08L908.73 159.89L852.92 159.89z" stroke="rgba(254, 228, 0, 1)"></path><path d="M1377.58 163.67a40.69 40.69 0 1 0 80.38 12.74z" fill="rgba(254, 228, 0, 1)"></path><path d="M912.76 223.52L916.2 223.52L916.2 226.96L912.76 226.96z" stroke="rgba(255, 101, 47, 1)"></path><path d="M251.05 78.07 a13.78 13.78 0 1 0 27.56 0 a13.78 13.78 0 1 0 -27.56 0z" fill="rgba(255, 101, 47, 1)"></path><path d="M1276.12 441.08 a47.18 47.18 0 1 0 94.36 0 a47.18 47.18 0 1 0 -94.36 0z" stroke="rgba(3, 255, 153, 1)"></path><path d="M847.37 73.27a37.87 37.87 0 1 0 21.05-72.76z" fill="rgba(254, 228, 0, 1)"></path><path d="M532.88 437.56L567.19 437.56L567.19 471.87L532.88 471.87z" fill="rgba(3, 255, 153, 1)"></path><path d="M241.35 301.71L289.4 301.71L289.4 350.46L241.35 350.46z" stroke="rgba(3, 255, 153, 1)"></path><path d="M903.55 308.2 a22.16 22.16 0 1 0 44.32 0 a22.16 22.16 0 1 0 -44.32 0z" fill="rgba(254, 228, 0, 1)"></path></g><defs><mask id="SvgjsMask1055"><rect width="1440" height="560" fill="#ffffff"></rect></mask></defs></svg>