<svg xmlns="http://www.w3.org/2000/svg" version="1.1" xmlns:xlink="http://www.w3.org/1999/xlink" xmlns:svgjs="http://svgjs.dev/svgjs" width="1440" height="560" preserveAspectRatio="none" viewBox="0 0 1440 560"><g mask="url(&quot;#SvgjsMask1004&quot;)" fill="none"><rect width="1440" height="560" x="0" y="0" fill="rgba(40, 40, 40, 1)"></rect><path d="M1281.31 484.03L1318.03 484.03L1318.03 490.64L1281.31 490.64z" fill="rgba(254, 228, 0, 1)"></path><path d="M988.03 95.89 a38.95 38.95 0 1 0 77.9 0 a38.95 38.95 0 1 0 -77.9 0z" fill="rgba(254, 228, 0, 1)"></path><path d="M342.12 198.04L386.65 198.04L386.65 225.87L342.12 225.87z" fill="rgba(254, 228, 0, 1)"></path><path d="M978.36 275.09a37.52 37.52 0 1 0 49.94-56.01z" stroke="rgba(255, 101, 47, 1)"></path><path d="M747.38 369.84L757.62 369.84L757.62 380.08L747.38 380.08z" stroke="rgba(254, 228, 0, 1)"></path><path d="M100.91 9.6a27.51 27.51 0 1 0 27.24 47.8z" fill="rgba(254, 228, 0, 1)"></path><path d="M1230.74 11.32L1277.58 11.32L1277.58 58.16L1230.74 58.16z" fill="rgba(254, 228, 0, 1)"></path><path d="M18.27 97.08 a32.55 32.55 0 1 0 65.1 0 a32.55 32.55 0 1 0 -65.1 0z" fill="rgba(255, 101, 47, 1)"></path><path d="M205.02 521.12 a23.1 23.1 0 1 0 46.2 0 a23.1 23.1 0 1 0 -46.2 0z" stroke="rgba(255, 101, 47, 1)"></path><path d="M935.31 552.25 a32.95 32.95 0 1 0 65.9 0 a32.95 32.95 0 1 0 -65.9 0z" stroke="rgba(254, 228, 0, 1)"></path><path d="M235.65 274.26L254.61 274.26L254.61 290.56L235.65 290.56z" stroke="rgba(254, 228, 0, 1)"></path><path d="M520.54 329.43 a52.22 52.22 0 1 0 104.44 0 a52.22 52.22 0 1 0 -104.44 0z" fill="rgba(3, 255, 153, 1)"></path><path d="M356.24 33.53a6.29 6.29 0 1 0-8.51-9.26z" fill="rgba(3, 255, 153, 1)"></path><path d="M490.01 311.66L517.46 311.66L517.46 339.11L490.01 339.11z" fill="rgba(254, 228, 0, 1)"></path><path d="M1136.04 393.52a1.74 1.74 0 1 0-0.75-3.4z" fill="rgba(255, 101, 47, 1)"></path><path d="M1159.21 504.51 a17.94 17.94 0 1 0 35.88 0 a17.94 17.94 0 1 0 -35.88 0z" stroke="rgba(3, 255, 153, 1)"></path><path d="M182.99 81.24L203.08 81.24L203.08 101.33L182.99 101.33z" fill="rgba(3, 255, 153, 1)"></path><path d="M384.51 257.08L406.9 257.08L406.9 279.47L384.51 279.47z" stroke="rgba(255, 101, 47, 1)"></path><path d="M649.4 313.59a53.46 53.46 0 1 0-23 104.41z" fill="rgba(3, 255, 153, 1)"></path><path d="M363.72 345.96a33.9 33.9 0 1 0 4.68-67.64z" stroke="rgba(3, 255, 153, 1)"></path><path d="M256.55 346.9 a30.74 30.74 0 1 0 61.48 0 a30.74 30.74 0 1 0 -61.48 0z" stroke="rgba(3, 255, 153, 1)"></path><path d="M530.05 474.61L549.81 474.61L549.81 475.1L530.05 475.1z" stroke="rgba(255, 101, 47, 1)"></path><path d="M348.71 228.88a24.11 24.11 0 1 0 40.82-25.68z" stroke="rgba(254, 228, 0, 1)"></path><path d="M1211.84 435.68 a48.93 48.93 0 1 0 97.86 0 a48.93 48.93 0 1 0 -97.86 0z" stroke="rgba(254, 228, 0, 1)"></path><path d="M444.97 290.55a5.34 5.34 0 1 0 10 3.75z" fill="rgba(255, 101, 47, 1)"></path><path d="M442.56 544.52a49.35 49.35 0 1 0-67.24-72.25z" fill="rgba(254, 228, 0, 1)"></path><path d="M122.74 329.99a38.76 38.76 0 1 0 44.04 63.79z" fill="rgba(255, 101, 47, 1)"></path><path d="M1267.34 96L1272.82 96L1272.82 105.7L1267.34 105.7z" stroke="rgba(254, 228, 0, 1)"></path><path d="M544.35 504.12 a21.74 21.74 0 1 0 43.48 0 a21.74 21.74 0 1 0 -43.48 0z" stroke="rgba(255, 101, 47, 1)"></path><path d="M1292.03 480.27L1318.97 480.27L1318.97 507.21L1292.03 507.21z" fill="rgba(254, 228, 0, 1)"></path><path d="M634.32 513.27L669.44 513.27L669.44 548.39L634.32 548.39z" fill="rgba(254, 228, 0, 1)"></path><path d="M964.25 487.43 a45.27 45.27 0 1 0 90.54 0 a45.27 45.27 0 1 0 -90.54 0z" fill="rgba(254, 228, 0, 1)"></path><path d="M233.48 547.62L244.81 547.62L244.81 552.67L233.48 552.67z" fill="rgba(3, 255, 153, 1)"></path></g><defs><mask id="SvgjsMask1004"><rect width="1440" height="560" fill="#ffffff"></rect></mask></defs></svg>