<svg xmlns="http://www.w3.org/2000/svg" version="1.1" xmlns:xlink="http://www.w3.org/1999/xlink" xmlns:svgjs="http://svgjs.dev/svgjs" width="1440" height="560" preserveAspectRatio="none" viewBox="0 0 1440 560"><g mask="url(&quot;#SvgjsMask1021&quot;)" fill="none"><rect width="1440" height="560" x="0" y="0" fill="rgba(40, 40, 40, 1)"></rect><path d="M476.34 230.89L508.35 230.89L508.35 269L476.34 269z" fill="rgba(255, 101, 47, 1)"></path><path d="M661.94 418.59L664.87 418.59L664.87 444.17L661.94 444.17z" fill="rgba(3, 255, 153, 1)"></path><path d="M734.76 334.08L765.81 334.08L765.81 376.94L734.76 376.94z" stroke="rgba(255, 101, 47, 1)"></path><path d="M650.6 336.96L652.42 336.96L652.42 386.28L650.6 386.28z" fill="rgba(255, 101, 47, 1)"></path><path d="M1392.52 457.11a36.55 36.55 0 1 0-55.35 47.75z" fill="rgba(3, 255, 153, 1)"></path><path d="M1287.28 124.74a38.21 38.21 0 1 0 73.66 20.36z" fill="rgba(254, 228, 0, 1)"></path><path d="M1288.55 496.97L1338.18 496.97L1338.18 546.6L1288.55 546.6z" stroke="rgba(3, 255, 153, 1)"></path><path d="M273.27 235.51L312.13 235.51L312.13 290.87L273.27 290.87z" stroke="rgba(255, 101, 47, 1)"></path><path d="M1379.5 57.32L1432.47 57.32L1432.47 77.83L1379.5 77.83z" stroke="rgba(3, 255, 153, 1)"></path><path d="M1428.63 284.96L1481.82 284.96L1481.82 338.15L1428.63 338.15z" fill="rgba(3, 255, 153, 1)"></path><path d="M325.16 171.38 a16.71 16.71 0 1 0 33.42 0 a16.71 16.71 0 1 0 -33.42 0z" fill="rgba(254, 228, 0, 1)"></path><path d="M1217.5 283.32 a24.45 24.45 0 1 0 48.9 0 a24.45 24.45 0 1 0 -48.9 0z" stroke="rgba(255, 101, 47, 1)"></path><path d="M1035.81 252.96 a15.15 15.15 0 1 0 30.3 0 a15.15 15.15 0 1 0 -30.3 0z" fill="rgba(254, 228, 0, 1)"></path><path d="M567.35 84.17 a33.71 33.71 0 1 0 67.42 0 a33.71 33.71 0 1 0 -67.42 0z" fill="rgba(3, 255, 153, 1)"></path><path d="M1323.38 318.52a40.45 40.45 0 1 0-67.38-44.78z" fill="rgba(3, 255, 153, 1)"></path><path d="M676.05 455.89L713.37 455.89L713.37 482.94L676.05 482.94z" stroke="rgba(254, 228, 0, 1)"></path><path d="M384.79-2.53a52.2 52.2 0 1 0-85.57 59.82z" stroke="rgba(255, 101, 47, 1)"></path><path d="M450.47 402.46L467.69 402.46L467.69 419.68L450.47 419.68z" stroke="rgba(3, 255, 153, 1)"></path><path d="M603.28 370.6 a5.55 5.55 0 1 0 11.1 0 a5.55 5.55 0 1 0 -11.1 0z" stroke="rgba(254, 228, 0, 1)"></path><path d="M165.79 428.2a19.01 19.01 0 1 0-37.96-2.12z" stroke="rgba(3, 255, 153, 1)"></path><path d="M1201.49 11.24L1244.59 11.24L1244.59 54.34L1201.49 54.34z" fill="rgba(3, 255, 153, 1)"></path><path d="M887.1 337.56a51.17 51.17 0 1 0-62.92-80.71z" stroke="rgba(255, 101, 47, 1)"></path><path d="M1258.77 322.19 a53.57 53.57 0 1 0 107.14 0 a53.57 53.57 0 1 0 -107.14 0z" stroke="rgba(3, 255, 153, 1)"></path><path d="M158.39 48.53a40.39 40.39 0 1 0 10.58 80.09z" stroke="rgba(3, 255, 153, 1)"></path><path d="M743.03 154.69 a22.41 22.41 0 1 0 44.82 0 a22.41 22.41 0 1 0 -44.82 0z" stroke="rgba(3, 255, 153, 1)"></path><path d="M1094.79 16.24L1134.04 16.24L1134.04 26.65L1094.79 26.65z" fill="rgba(254, 228, 0, 1)"></path><path d="M241.45 153.04L287.55 153.04L287.55 198.16L241.45 198.16z" stroke="rgba(3, 255, 153, 1)"></path><path d="M1208.15 130.69a48.33 48.33 0 1 0 68.84-67.86z" fill="rgba(3, 255, 153, 1)"></path><path d="M1311.06 0.65L1361.17 0.65L1361.17 50.76L1311.06 50.76z" fill="rgba(3, 255, 153, 1)"></path><path d="M1114.94 428.62L1144.57 428.62L1144.57 429.01L1114.94 429.01z" stroke="rgba(255, 101, 47, 1)"></path><path d="M505.08 532.25 a31.02 31.02 0 1 0 62.04 0 a31.02 31.02 0 1 0 -62.04 0z" fill="rgba(255, 101, 47, 1)"></path><path d="M669.61 450.71L685.24 450.71L685.24 505.62L669.61 505.62z" fill="rgba(255, 101, 47, 1)"></path><path d="M3.83 87.83L46.07 87.83L46.07 130.07L3.83 130.07z" fill="rgba(255, 101, 47, 1)"></path></g><defs><mask id="SvgjsMask1021"><rect width="1440" height="560" fill="#ffffff"></rect></mask></defs></svg>