<svg xmlns="http://www.w3.org/2000/svg" version="1.1" xmlns:xlink="http://www.w3.org/1999/xlink" xmlns:svgjs="http://svgjs.dev/svgjs" width="1440" height="560" preserveAspectRatio="none" viewBox="0 0 1440 560"><g mask="url(&quot;#SvgjsMask1022&quot;)" fill="none"><rect width="1440" height="560" x="0" y="0" fill="rgba(40, 40, 40, 1)"></rect><path d="M1428.96 434.66L1479.4 434.66L1479.4 443.02L1428.96 443.02z" stroke="rgba(3, 255, 153, 1)"></path><path d="M331.52 362.98L361.6 362.98L361.6 393.06L331.52 393.06z" stroke="rgba(3, 255, 153, 1)"></path><path d="M216.55 346.03L253.87 346.03L253.87 383.35L216.55 383.35z" fill="rgba(254, 228, 0, 1)"></path><path d="M140.34 325.89a46.68 46.68 0 1 0 91.42 18.94z" fill="rgba(255, 101, 47, 1)"></path><path d="M853.37 259.41 a11.6 11.6 0 1 0 23.2 0 a11.6 11.6 0 1 0 -23.2 0z" stroke="rgba(255, 101, 47, 1)"></path><path d="M845.42 275.34L889.74 275.34L889.74 309.72L845.42 309.72z" stroke="rgba(255, 101, 47, 1)"></path><path d="M184.44 323.87a42.49 42.49 0 1 0 5.99 84.77z" stroke="rgba(3, 255, 153, 1)"></path><path d="M295.02 379.42L312.82 379.42L312.82 424.33L295.02 424.33z" stroke="rgba(254, 228, 0, 1)"></path><path d="M1428.45 211.38L1448.67 211.38L1448.67 231.6L1428.45 231.6z" stroke="rgba(255, 101, 47, 1)"></path><path d="M153.16 315.79L187.18 315.79L187.18 360.14L153.16 360.14z" stroke="rgba(254, 228, 0, 1)"></path><path d="M712.18 89.18L748.85 89.18L748.85 125.85L712.18 125.85z" fill="rgba(3, 255, 153, 1)"></path><path d="M1238.07 124.04L1269.91 124.04L1269.91 155.88L1238.07 155.88z" fill="rgba(254, 228, 0, 1)"></path><path d="M575.59 522.18L612.16 522.18L612.16 576.78L575.59 576.78z" fill="rgba(254, 228, 0, 1)"></path><path d="M619.99 329.49L647.02 329.49L647.02 356.52L619.99 356.52z" fill="rgba(254, 228, 0, 1)"></path><path d="M411.03 101.01 a44.83 44.83 0 1 0 89.66 0 a44.83 44.83 0 1 0 -89.66 0z" stroke="rgba(3, 255, 153, 1)"></path><path d="M356.55 327.86L376.58 327.86L376.58 365.19L356.55 365.19z" fill="rgba(3, 255, 153, 1)"></path><path d="M280.85 201.88 a23.18 23.18 0 1 0 46.36 0 a23.18 23.18 0 1 0 -46.36 0z" fill="rgba(254, 228, 0, 1)"></path><path d="M955.74 45.21L960.54 45.21L960.54 77.39L955.74 77.39z" fill="rgba(254, 228, 0, 1)"></path><path d="M825.87 413.46a2.41 2.41 0 1 0-0.02-4.82z" fill="rgba(3, 255, 153, 1)"></path><path d="M865.3 149.05a26.63 26.63 0 1 0 11.16 52.08z" fill="rgba(3, 255, 153, 1)"></path><path d="M385.35 468.74L390.09 468.74L390.09 473.48L385.35 473.48z" stroke="rgba(255, 101, 47, 1)"></path><path d="M183.67 300.17 a28.91 28.91 0 1 0 57.82 0 a28.91 28.91 0 1 0 -57.82 0z" fill="rgba(3, 255, 153, 1)"></path><path d="M468.75 318.54L481.86 318.54L481.86 368.42L468.75 368.42z" stroke="rgba(3, 255, 153, 1)"></path><path d="M445.07 535.74 a8.59 8.59 0 1 0 17.18 0 a8.59 8.59 0 1 0 -17.18 0z" fill="rgba(3, 255, 153, 1)"></path><path d="M288.08 303.93 a4.79 4.79 0 1 0 9.58 0 a4.79 4.79 0 1 0 -9.58 0z" stroke="rgba(255, 101, 47, 1)"></path><path d="M37.3 35.52L84.52 35.52L84.52 59.65L37.3 59.65z" stroke="rgba(254, 228, 0, 1)"></path><path d="M49.77 448.8 a42.68 42.68 0 1 0 85.36 0 a42.68 42.68 0 1 0 -85.36 0z" stroke="rgba(255, 101, 47, 1)"></path><path d="M708.15 66.79a34.41 34.41 0 1 0-20.58 65.67z" stroke="rgba(3, 255, 153, 1)"></path><path d="M190.5 437.72 a20.84 20.84 0 1 0 41.68 0 a20.84 20.84 0 1 0 -41.68 0z" fill="rgba(255, 101, 47, 1)"></path><path d="M624.51 335.06a9.63 9.63 0 1 0-9.76-16.6z" fill="rgba(255, 101, 47, 1)"></path><path d="M1312.09 566.59a54.36 54.36 0 1 0-27.39-105.21z" stroke="rgba(254, 228, 0, 1)"></path><path d="M94.25 419.52L99.67 419.52L99.67 419.64L94.25 419.64z" fill="rgba(3, 255, 153, 1)"></path><path d="M1287.32 96.84L1329.23 96.84L1329.23 134.65L1287.32 134.65z" fill="rgba(3, 255, 153, 1)"></path></g><defs><mask id="SvgjsMask1022"><rect width="1440" height="560" fill="#ffffff"></rect></mask></defs></svg>