<svg xmlns="http://www.w3.org/2000/svg" version="1.1" xmlns:xlink="http://www.w3.org/1999/xlink" xmlns:svgjs="http://svgjs.dev/svgjs" width="1440" height="560" preserveAspectRatio="none" viewBox="0 0 1440 560"><g mask="url(&quot;#SvgjsMask1052&quot;)" fill="none"><rect width="1440" height="560" x="0" y="0" fill="rgba(40, 40, 40, 1)"></rect><path d="M-20.7 533.42 a55.3 55.3 0 1 0 110.6 0 a55.3 55.3 0 1 0 -110.6 0z" fill="rgba(254, 228, 0, 1)"></path><path d="M95.82 150.52a2.4 2.4 0 1 0-0.57 4.77z" stroke="rgba(3, 255, 153, 1)"></path><path d="M541.64 8.83 a13.34 13.34 0 1 0 26.68 0 a13.34 13.34 0 1 0 -26.68 0z" stroke="rgba(254, 228, 0, 1)"></path><path d="M1371.42 225.13a32.26 32.26 0 1 0-59.36-25.29z" fill="rgba(3, 255, 153, 1)"></path><path d="M629 9.28L638.57 9.28L638.57 18.85L629 18.85z" fill="rgba(254, 228, 0, 1)"></path><path d="M1102.32 32.2a32.61 32.61 0 1 0-36.53-54.02z" stroke="rgba(3, 255, 153, 1)"></path><path d="M1072.86 450.64L1075.46 450.64L1075.46 468.24L1072.86 468.24z" stroke="rgba(255, 101, 47, 1)"></path><path d="M591.57 55.36a37.55 37.55 0 1 0 49.17-56.76z" fill="rgba(254, 228, 0, 1)"></path><path d="M1417.37 72.1L1462.51 72.1L1462.51 76.28L1417.37 76.28z" fill="rgba(255, 101, 47, 1)"></path><path d="M383.95 397.5L411.02 397.5L411.02 445.57L383.95 445.57z" fill="rgba(255, 101, 47, 1)"></path><path d="M957.66 95.51L982.51 95.51L982.51 120.36L957.66 120.36z" fill="rgba(3, 255, 153, 1)"></path><path d="M1219.01 387.76L1239.93 387.76L1239.93 408.68L1219.01 408.68z" fill="rgba(254, 228, 0, 1)"></path><path d="M629.1 232.69L640.4 232.69L640.4 243.99L629.1 243.99z" fill="rgba(254, 228, 0, 1)"></path><path d="M902.03 225.82 a49.25 49.25 0 1 0 98.5 0 a49.25 49.25 0 1 0 -98.5 0z" stroke="rgba(254, 228, 0, 1)"></path><path d="M-32.45 308.73a44.5 44.5 0 1 0 82.96 32.22z" fill="rgba(3, 255, 153, 1)"></path><path d="M380.44 289.15L432.91 289.15L432.91 341.62L380.44 341.62z" fill="rgba(255, 101, 47, 1)"></path><path d="M876.43 521.99L916.89 521.99L916.89 572L876.43 572z" fill="rgba(254, 228, 0, 1)"></path><path d="M811.08 452.75L825.01 452.75L825.01 470.8L811.08 470.8z" stroke="rgba(3, 255, 153, 1)"></path><path d="M732.07 523L778.18 523L778.18 541.29L732.07 541.29z" fill="rgba(254, 228, 0, 1)"></path><path d="M186.97 489.44 a46.39 46.39 0 1 0 92.78 0 a46.39 46.39 0 1 0 -92.78 0z" stroke="rgba(3, 255, 153, 1)"></path><path d="M73.88 11.83L108.56 11.83L108.56 17.9L73.88 17.9z" fill="rgba(255, 101, 47, 1)"></path><path d="M305.23 147.2L325.4 147.2L325.4 167.37L305.23 167.37z" stroke="rgba(254, 228, 0, 1)"></path><path d="M1250.58 130.93L1298.6 130.93L1298.6 178.95L1250.58 178.95z" stroke="rgba(3, 255, 153, 1)"></path><path d="M496.22 82.08L537.33 82.08L537.33 123.19L496.22 123.19z" stroke="rgba(3, 255, 153, 1)"></path><path d="M217.01 447.9L221.84 447.9L221.84 452.73L217.01 452.73z" stroke="rgba(255, 101, 47, 1)"></path><path d="M223.58 280.62a20.84 20.84 0 1 0 14.39-39.12z" stroke="rgba(254, 228, 0, 1)"></path><path d="M1209.84 518.83a44.19 44.19 0 1 0-57.86-66.81z" fill="rgba(254, 228, 0, 1)"></path><path d="M1318.63 318.48 a15.72 15.72 0 1 0 31.44 0 a15.72 15.72 0 1 0 -31.44 0z" fill="rgba(3, 255, 153, 1)"></path><path d="M214.68 405.79a24.51 24.51 0 1 0 34.52 34.8z" stroke="rgba(255, 101, 47, 1)"></path><path d="M496.56 204.19L549.9 204.19L549.9 260.06L496.56 260.06z" fill="rgba(255, 101, 47, 1)"></path><path d="M588.28 436.81 a14.65 14.65 0 1 0 29.3 0 a14.65 14.65 0 1 0 -29.3 0z" fill="rgba(254, 228, 0, 1)"></path><path d="M1377.78 524.09L1419.11 524.09L1419.11 565.42L1377.78 565.42z" fill="rgba(3, 255, 153, 1)"></path><path d="M1181.15 304.17 a8.49 8.49 0 1 0 16.98 0 a8.49 8.49 0 1 0 -16.98 0z" stroke="rgba(3, 255, 153, 1)"></path></g><defs><mask id="SvgjsMask1052"><rect width="1440" height="560" fill="#ffffff"></rect></mask></defs></svg>