<svg xmlns="http://www.w3.org/2000/svg" version="1.1" xmlns:xlink="http://www.w3.org/1999/xlink" xmlns:svgjs="http://svgjs.dev/svgjs" width="1440" height="560" preserveAspectRatio="none" viewBox="0 0 1440 560"><g mask="url(&quot;#SvgjsMask1073&quot;)" fill="none"><rect width="1440" height="560" x="0" y="0" fill="rgba(40, 40, 40, 1)"></rect><path d="M562.67 312.78L576.05 312.78L576.05 361.37L562.67 361.37z" fill="rgba(255, 101, 47, 1)"></path><path d="M642.04 392.55a20.31 20.31 0 1 0 35.56 19.62z" fill="rgba(3, 255, 153, 1)"></path><path d="M48.35 499.71L63.7 499.71L63.7 515.06L48.35 515.06z" stroke="rgba(254, 228, 0, 1)"></path><path d="M651.81 414.78L655.18 414.78L655.18 420.34L651.81 420.34z" fill="rgba(255, 101, 47, 1)"></path><path d="M371.76 251.99L392.47 251.99L392.47 283.73L371.76 283.73z" fill="rgba(3, 255, 153, 1)"></path><path d="M464.65 514.14a52.58 52.58 0 1 0-75.62-73.08z" fill="rgba(254, 228, 0, 1)"></path><path d="M792.03 38.13a15.43 15.43 0 1 0-18.49-24.71z" fill="rgba(255, 101, 47, 1)"></path><path d="M784.4 235.86a7.28 7.28 0 1 0 0.49 14.55z" stroke="rgba(254, 228, 0, 1)"></path><path d="M11.35 393.86L58.57 393.86L58.57 415.55L11.35 415.55z" fill="rgba(3, 255, 153, 1)"></path><path d="M1266.18 523.02 a33.01 33.01 0 1 0 66.02 0 a33.01 33.01 0 1 0 -66.02 0z" stroke="rgba(255, 101, 47, 1)"></path><path d="M23.72 202.51 a53.58 53.58 0 1 0 107.16 0 a53.58 53.58 0 1 0 -107.16 0z" fill="rgba(254, 228, 0, 1)"></path><path d="M703.23 475.51a41.33 41.33 0 1 0-54.25 62.37z" fill="rgba(3, 255, 153, 1)"></path><path d="M1335.77 392.62L1385.8 392.62L1385.8 442.65L1335.77 442.65z" fill="rgba(254, 228, 0, 1)"></path><path d="M-8.82 366.86a54.81 54.81 0 1 0 62.09-90.34z" fill="rgba(254, 228, 0, 1)"></path><path d="M23.18 116.13L78.96 116.13L78.96 171.91L23.18 171.91z" stroke="rgba(255, 101, 47, 1)"></path><path d="M1243.02 514.27L1262.17 514.27L1262.17 533.42L1243.02 533.42z" stroke="rgba(254, 228, 0, 1)"></path><path d="M390.62 468.58 a44.29 44.29 0 1 0 88.58 0 a44.29 44.29 0 1 0 -88.58 0z" fill="rgba(254, 228, 0, 1)"></path><path d="M205.31 147.05L223.39 147.05L223.39 165.13L205.31 165.13z" fill="rgba(255, 101, 47, 1)"></path><path d="M982.37 374.99L1014.99 374.99L1014.99 428.15L982.37 428.15z" stroke="rgba(3, 255, 153, 1)"></path><path d="M799.81 240.49a9.41 9.41 0 1 0-17.85-5.97z" fill="rgba(3, 255, 153, 1)"></path><path d="M679.44 352.56a0.53 0.53 0 1 0 1.02 0.26z" stroke="rgba(254, 228, 0, 1)"></path><path d="M129.21 408.8L144.01 408.8L144.01 417.41L129.21 417.41z" stroke="rgba(3, 255, 153, 1)"></path><path d="M1347.59 184.59 a18.32 18.32 0 1 0 36.64 0 a18.32 18.32 0 1 0 -36.64 0z" fill="rgba(254, 228, 0, 1)"></path><path d="M622.47 251.36a37.1 37.1 0 1 0-48.02-56.56z" fill="rgba(3, 255, 153, 1)"></path><path d="M1224.53 435.04L1237.4 435.04L1237.4 447.91L1224.53 447.91z" stroke="rgba(3, 255, 153, 1)"></path><path d="M1355.61 245.18 a0.14 0.14 0 1 0 0.28 0 a0.14 0.14 0 1 0 -0.28 0z" fill="rgba(254, 228, 0, 1)"></path><path d="M251.24 125.11L283.68 125.11L283.68 157.55L251.24 157.55z" stroke="rgba(3, 255, 153, 1)"></path><path d="M909.63 477.35a53.16 53.16 0 1 0-59.02-88.43z" stroke="rgba(3, 255, 153, 1)"></path><path d="M611.95 130a29.35 29.35 0 1 0-55.53 19.03z" fill="rgba(3, 255, 153, 1)"></path><path d="M50.43 433.64L65.81 433.64L65.81 436.29L50.43 436.29z" fill="rgba(254, 228, 0, 1)"></path><path d="M356.15 409.26 a15.53 15.53 0 1 0 31.06 0 a15.53 15.53 0 1 0 -31.06 0z" stroke="rgba(255, 101, 47, 1)"></path><path d="M53.15 556.75L60.53 556.75L60.53 570.19L53.15 570.19z" fill="rgba(3, 255, 153, 1)"></path><path d="M1276.76 259.85a4.94 4.94 0 1 0 3.17-9.36z" fill="rgba(255, 101, 47, 1)"></path></g><defs><mask id="SvgjsMask1073"><rect width="1440" height="560" fill="#ffffff"></rect></mask></defs></svg>