<svg xmlns="http://www.w3.org/2000/svg" version="1.1" xmlns:xlink="http://www.w3.org/1999/xlink" xmlns:svgjs="http://svgjs.dev/svgjs" width="1440" height="560" preserveAspectRatio="none" viewBox="0 0 1440 560"><g mask="url(&quot;#SvgjsMask1029&quot;)" fill="none"><rect width="1440" height="560" x="0" y="0" fill="rgba(40, 40, 40, 1)"></rect><path d="M1175.56 324.7L1197.18 324.7L1197.18 372.39L1175.56 372.39z" fill="rgba(254, 228, 0, 1)"></path><path d="M879.9 397.77a33.63 33.63 0 1 0 1.35-67.25z" fill="rgba(254, 228, 0, 1)"></path><path d="M339.23 466.64L377.51 466.64L377.51 504.92L339.23 504.92z" stroke="rgba(255, 101, 47, 1)"></path><path d="M306.34 370.98L331.73 370.98L331.73 396.37L306.34 396.37z" stroke="rgba(255, 101, 47, 1)"></path><path d="M174.63 168.68L185.51 168.68L185.51 179.56L174.63 179.56z" stroke="rgba(254, 228, 0, 1)"></path><path d="M1362.44 86.05L1418.12 86.05L1418.12 93.82L1362.44 93.82z" stroke="rgba(3, 255, 153, 1)"></path><path d="M187.27 546.28a5.92 5.92 0 1 0-3.84 11.2z" fill="rgba(254, 228, 0, 1)"></path><path d="M252.09 324.71L299.6 324.71L299.6 374.24L252.09 374.24z" stroke="rgba(3, 255, 153, 1)"></path><path d="M319.34 514.59 a4.24 4.24 0 1 0 8.48 0 a4.24 4.24 0 1 0 -8.48 0z" fill="rgba(254, 228, 0, 1)"></path><path d="M569.36 238.3L617.87 238.3L617.87 286.81L569.36 286.81z" fill="rgba(3, 255, 153, 1)"></path><path d="M732.58 219.33L767.16 219.33L767.16 253.91L732.58 253.91z" stroke="rgba(255, 101, 47, 1)"></path><path d="M995.67 328.61a11.82 11.82 0 1 0 15.85-17.54z" fill="rgba(3, 255, 153, 1)"></path><path d="M19.52 446.71 a36.97 36.97 0 1 0 73.94 0 a36.97 36.97 0 1 0 -73.94 0z" fill="rgba(254, 228, 0, 1)"></path><path d="M690.58 69.89L699.99 69.89L699.99 79.3L690.58 79.3z" stroke="rgba(3, 255, 153, 1)"></path><path d="M395.77 12.68L446.15 12.68L446.15 54.72L395.77 54.72z" fill="rgba(255, 101, 47, 1)"></path><path d="M160.76 494.26L194.14 494.26L194.14 527.64L160.76 527.64z" fill="rgba(254, 228, 0, 1)"></path><path d="M1262.08 256.64L1265.3 256.64L1265.3 259.86L1262.08 259.86z" fill="rgba(3, 255, 153, 1)"></path><path d="M167.22 544.68L188.74 544.68L188.74 580.96L167.22 580.96z" fill="rgba(3, 255, 153, 1)"></path><path d="M244.75 371.3a31.18 31.18 0 1 0 8.28 61.81z" fill="rgba(3, 255, 153, 1)"></path><path d="M301.01 496.35 a38.07 38.07 0 1 0 76.14 0 a38.07 38.07 0 1 0 -76.14 0z" fill="rgba(254, 228, 0, 1)"></path><path d="M1223.33 323.87 a35.98 35.98 0 1 0 71.96 0 a35.98 35.98 0 1 0 -71.96 0z" stroke="rgba(255, 101, 47, 1)"></path><path d="M27.05 288.87 a39.12 39.12 0 1 0 78.24 0 a39.12 39.12 0 1 0 -78.24 0z" stroke="rgba(3, 255, 153, 1)"></path><path d="M282.34 216.89L321.42 216.89L321.42 252.95L282.34 252.95z" fill="rgba(255, 101, 47, 1)"></path><path d="M75.92 543.97a19.69 19.69 0 1 0 38.56-7.98z" fill="rgba(255, 101, 47, 1)"></path><path d="M970.27 402.23L1007.73 402.23L1007.73 420.26L970.27 420.26z" stroke="rgba(255, 101, 47, 1)"></path><path d="M228.87 163.76 a11.72 11.72 0 1 0 23.44 0 a11.72 11.72 0 1 0 -23.44 0z" fill="rgba(3, 255, 153, 1)"></path><path d="M1.24 100.35L16.54 100.35L16.54 147.54L1.24 147.54z" fill="rgba(3, 255, 153, 1)"></path><path d="M339.76 187.59L392.89 187.59L392.89 232.4L339.76 232.4z" fill="rgba(3, 255, 153, 1)"></path><path d="M1237.91 431.96a27.26 27.26 0 1 0 43.74 32.54z" stroke="rgba(3, 255, 153, 1)"></path><path d="M560.71 380.34L587.7 380.34L587.7 427.92L560.71 427.92z" stroke="rgba(3, 255, 153, 1)"></path><path d="M603.24 304.46L652.57 304.46L652.57 357.13L603.24 357.13z" fill="rgba(255, 101, 47, 1)"></path><path d="M1243.71 297.48L1244.16 297.48L1244.16 298.55L1243.71 298.55z" fill="rgba(254, 228, 0, 1)"></path><path d="M1348.81 436.13L1401.4 436.13L1401.4 439.27L1348.81 439.27z" fill="rgba(255, 101, 47, 1)"></path></g><defs><mask id="SvgjsMask1029"><rect width="1440" height="560" fill="#ffffff"></rect></mask></defs></svg>