<svg xmlns="http://www.w3.org/2000/svg" version="1.1" xmlns:xlink="http://www.w3.org/1999/xlink" xmlns:svgjs="http://svgjs.dev/svgjs" width="1440" height="560" preserveAspectRatio="none" viewBox="0 0 1440 560"><g mask="url(&quot;#SvgjsMask1049&quot;)" fill="none"><rect width="1440" height="560" x="0" y="0" fill="rgba(40, 40, 40, 1)"></rect><path d="M396.11 262.22L437.9 262.22L437.9 285.1L396.11 285.1z" stroke="rgba(255, 101, 47, 1)"></path><path d="M1218.7 454.02L1235.36 454.02L1235.36 457.77L1218.7 457.77z" fill="rgba(3, 255, 153, 1)"></path><path d="M873.65 150.96a6.59 6.59 0 1 0-2.16-13z" fill="rgba(254, 228, 0, 1)"></path><path d="M118.63 406.99a40.85 40.85 0 1 0 12.92-80.67z" fill="rgba(255, 101, 47, 1)"></path><path d="M1043.88 538.38 a29.65 29.65 0 1 0 59.3 0 a29.65 29.65 0 1 0 -59.3 0z" fill="rgba(3, 255, 153, 1)"></path><path d="M752.62 59.91 a0.32 0.32 0 1 0 0.64 0 a0.32 0.32 0 1 0 -0.64 0z" fill="rgba(255, 101, 47, 1)"></path><path d="M717.06 476.36L770.58 476.36L770.58 529.88L717.06 529.88z" fill="rgba(254, 228, 0, 1)"></path><path d="M198.58 255.88 a1.26 1.26 0 1 0 2.52 0 a1.26 1.26 0 1 0 -2.52 0z" fill="rgba(3, 255, 153, 1)"></path><path d="M767.01 136.08a8.95 8.95 0 1 0-11.32-13.87z" stroke="rgba(255, 101, 47, 1)"></path><path d="M1295 292.28L1339.78 292.28L1339.78 337.06L1295 337.06z" fill="rgba(3, 255, 153, 1)"></path><path d="M1122.61 188.57L1125.63 188.57L1125.63 191.59L1122.61 191.59z" stroke="rgba(255, 101, 47, 1)"></path><path d="M901.13 403.94 a25.75 25.75 0 1 0 51.5 0 a25.75 25.75 0 1 0 -51.5 0z" fill="rgba(3, 255, 153, 1)"></path><path d="M1408.99 2.55L1434.06 2.55L1434.06 27.62L1408.99 27.62z" stroke="rgba(255, 101, 47, 1)"></path><path d="M398.05 418.1L402.59 418.1L402.59 422.64L398.05 422.64z" fill="rgba(3, 255, 153, 1)"></path><path d="M293.63 320.82 a46.98 46.98 0 1 0 93.96 0 a46.98 46.98 0 1 0 -93.96 0z" stroke="rgba(254, 228, 0, 1)"></path><path d="M1114.92 61.02L1132.8 61.02L1132.8 78.9L1114.92 78.9z" fill="rgba(3, 255, 153, 1)"></path><path d="M141.65 412.31L167.94 412.31L167.94 441.12L141.65 441.12z" fill="rgba(3, 255, 153, 1)"></path><path d="M516.94 366.44L541.27 366.44L541.27 390.84L516.94 390.84z" fill="rgba(254, 228, 0, 1)"></path><path d="M359.58 381.92L411.76 381.92L411.76 434.1L359.58 434.1z" stroke="rgba(255, 101, 47, 1)"></path><path d="M981.06 275.4 a22.21 22.21 0 1 0 44.42 0 a22.21 22.21 0 1 0 -44.42 0z" stroke="rgba(254, 228, 0, 1)"></path><path d="M77 206.8L108.69 206.8L108.69 238.49L77 238.49z" fill="rgba(3, 255, 153, 1)"></path><path d="M232.33 38.76L287.13 38.76L287.13 93.56L232.33 93.56z" fill="rgba(3, 255, 153, 1)"></path><path d="M839.97 18.92a33.64 33.64 0 1 0-57.37-35.14z" fill="rgba(3, 255, 153, 1)"></path><path d="M715.65 378.1L724.06 378.1L724.06 386.51L715.65 386.51z" fill="rgba(3, 255, 153, 1)"></path><path d="M1366.62 460.37a8.06 8.06 0 1 0 14.42 7.2z" stroke="rgba(3, 255, 153, 1)"></path><path d="M1010.68 368.31a17.46 17.46 0 1 0-2.54-34.83z" stroke="rgba(254, 228, 0, 1)"></path><path d="M261.56 461.58 a17.18 17.18 0 1 0 34.36 0 a17.18 17.18 0 1 0 -34.36 0z" stroke="rgba(255, 101, 47, 1)"></path><path d="M19.23 157.22L59.28 157.22L59.28 197.27L19.23 197.27z" fill="rgba(3, 255, 153, 1)"></path><path d="M831.48 345.47L834.4 345.47L834.4 348.39L831.48 348.39z" fill="rgba(255, 101, 47, 1)"></path><path d="M572.29 167.44L600.2 167.44L600.2 195.35L572.29 195.35z" stroke="rgba(3, 255, 153, 1)"></path><path d="M369.31 220.61a18.04 18.04 0 1 0 31.6 17.42z" stroke="rgba(255, 101, 47, 1)"></path><path d="M719.28 363.55a16.19 16.19 0 1 0 28.96 14.48z" fill="rgba(255, 101, 47, 1)"></path><path d="M84.01 512.11L138.71 512.11L138.71 531.42L84.01 531.42z" fill="rgba(255, 101, 47, 1)"></path></g><defs><mask id="SvgjsMask1049"><rect width="1440" height="560" fill="#ffffff"></rect></mask></defs></svg>