<svg xmlns="http://www.w3.org/2000/svg" version="1.1" xmlns:xlink="http://www.w3.org/1999/xlink" xmlns:svgjs="http://svgjs.dev/svgjs" width="1440" height="560" preserveAspectRatio="none" viewBox="0 0 1440 560"><g mask="url(&quot;#SvgjsMask1028&quot;)" fill="none"><g mask="url(&quot;#SvgjsMask1029&quot;)"><path d="M12.5 287.5L37.5 262.5M-12.5 287.5L12.5 287.5L37.5 287.5L62.5 287.5" stroke="rgba(0, 169, 127, 1)" stroke-width="4.17"></path><path d="M56.25 287.5 a6.25 6.25 0 1 0 12.5 0 a6.25 6.25 0 1 0 -12.5 0zM31.25 262.5 a6.25 6.25 0 1 0 12.5 0 a6.25 6.25 0 1 0 -12.5 0z" fill="rgba(0, 169, 127, 1)"></path><path d="M312.5 187.5L337.5 212.5L362.5 212.5M537.5 137.5L562.5 162.5L587.5 162.5L612.5 187.5L637.5 187.5M212.5 187.5L237.5 212.5L262.5 212.5L287.5 212.5L312.5 212.5L337.5 237.5M462.5 137.5L487.5 162.5L512.5 162.5L537.5 162.5M137.5 187.5L162.5 212.5L187.5 212.5L212.5 212.5M37.5 237.5L62.5 262.5L87.5 262.5L112.5 262.5L137.5 262.5L162.5 262.5L187.5 262.5M-12.5 262.5L12.5 237.5L37.5 237.5L62.5 212.5L87.5 187.5L112.5 187.5L137.5 187.5L162.5 187.5L187.5 187.5L212.5 187.5L237.5 187.5L262.5 187.5L287.5 187.5L312.5 187.5L337.5 187.5L362.5 187.5L387.5 162.5L412.5 162.5L437.5 137.5L462.5 137.5L487.5 137.5L512.5 137.5L537.5 137.5L562.5 137.5" stroke="rgba(0, 169, 127, 1)" stroke-width="4.17"></path><path d="M556.25 137.5 a6.25 6.25 0 1 0 12.5 0 a6.25 6.25 0 1 0 -12.5 0zM356.25 212.5 a6.25 6.25 0 1 0 12.5 0 a6.25 6.25 0 1 0 -12.5 0zM631.25 187.5 a6.25 6.25 0 1 0 12.5 0 a6.25 6.25 0 1 0 -12.5 0zM331.25 237.5 a6.25 6.25 0 1 0 12.5 0 a6.25 6.25 0 1 0 -12.5 0zM531.25 162.5 a6.25 6.25 0 1 0 12.5 0 a6.25 6.25 0 1 0 -12.5 0zM206.25 212.5 a6.25 6.25 0 1 0 12.5 0 a6.25 6.25 0 1 0 -12.5 0zM181.25 262.5 a6.25 6.25 0 1 0 12.5 0 a6.25 6.25 0 1 0 -12.5 0z" fill="rgba(0, 169, 127, 1)"></path><path d="M62.5 312.5L87.5 337.5L112.5 337.5M187.5 287.5L212.5 312.5L237.5 337.5L262.5 362.5M162.5 287.5L187.5 312.5M-12.5 312.5L12.5 312.5L37.5 312.5L62.5 312.5L87.5 312.5L112.5 312.5L137.5 287.5L162.5 287.5L187.5 287.5L212.5 287.5" stroke="rgba(0, 0, 0, 1)" stroke-width="4.17"></path><path d="M206.25 287.5 a6.25 6.25 0 1 0 12.5 0 a6.25 6.25 0 1 0 -12.5 0zM106.25 337.5 a6.25 6.25 0 1 0 12.5 0 a6.25 6.25 0 1 0 -12.5 0zM256.25 362.5 a6.25 6.25 0 1 0 12.5 0 a6.25 6.25 0 1 0 -12.5 0zM181.25 312.5 a6.25 6.25 0 1 0 12.5 0 a6.25 6.25 0 1 0 -12.5 0z" fill="rgba(0, 0, 0, 1)"></path><path d="M337.5 162.5L362.5 137.5M212.5 162.5L237.5 137.5L262.5 137.5L287.5 137.5L312.5 137.5M187.5 162.5L212.5 137.5L237.5 112.5L262.5 112.5L287.5 112.5L312.5 112.5M-12.5 237.5L12.5 212.5L37.5 212.5L62.5 187.5L87.5 162.5L112.5 162.5L137.5 162.5L162.5 162.5L187.5 162.5L212.5 162.5L237.5 162.5L262.5 162.5L287.5 162.5L312.5 162.5L337.5 162.5L362.5 162.5L387.5 137.5L412.5 137.5" stroke="rgba(0, 169, 127, 1)" stroke-width="4.17"></path><path d="M406.25 137.5 a6.25 6.25 0 1 0 12.5 0 a6.25 6.25 0 1 0 -12.5 0zM356.25 137.5 a6.25 6.25 0 1 0 12.5 0 a6.25 6.25 0 1 0 -12.5 0zM306.25 137.5 a6.25 6.25 0 1 0 12.5 0 a6.25 6.25 0 1 0 -12.5 0zM306.25 112.5 a6.25 6.25 0 1 0 12.5 0 a6.25 6.25 0 1 0 -12.5 0z" fill="rgba(0, 169, 127, 1)"></path><path d="M87.5 362.5L112.5 387.5L137.5 387.5M187.5 387.5L212.5 362.5M137.5 362.5L162.5 362.5M-12.5 337.5L12.5 337.5L37.5 362.5L62.5 362.5L87.5 362.5L112.5 362.5L137.5 362.5L162.5 387.5L187.5 387.5L212.5 387.5L237.5 387.5" stroke="rgba(0, 0, 0, 1)" stroke-width="4.17"></path><path d="M231.25 387.5 a6.25 6.25 0 1 0 12.5 0 a6.25 6.25 0 1 0 -12.5 0zM131.25 387.5 a6.25 6.25 0 1 0 12.5 0 a6.25 6.25 0 1 0 -12.5 0zM206.25 362.5 a6.25 6.25 0 1 0 12.5 0 a6.25 6.25 0 1 0 -12.5 0zM156.25 362.5 a6.25 6.25 0 1 0 12.5 0 a6.25 6.25 0 1 0 -12.5 0z" fill="rgba(0, 0, 0, 1)"></path><path d="M137.5 137.5L162.5 112.5L187.5 112.5M-12.5 212.5L12.5 187.5L37.5 187.5L62.5 162.5L87.5 137.5L112.5 137.5L137.5 137.5L162.5 137.5" stroke="rgba(0, 0, 0, 1)" stroke-width="4.17"></path><path d="M156.25 137.5 a6.25 6.25 0 1 0 12.5 0 a6.25 6.25 0 1 0 -12.5 0zM181.25 112.5 a6.25 6.25 0 1 0 12.5 0 a6.25 6.25 0 1 0 -12.5 0z" fill="rgba(0, 0, 0, 1)"></path><path d="M-12.5 362.5L12.5 362.5L37.5 387.5L62.5 387.5" stroke="rgba(1, 135, 108, 1)" stroke-width="4.17"></path><path d="M56.25 387.5 a6.25 6.25 0 1 0 12.5 0 a6.25 6.25 0 1 0 -12.5 0z" fill="rgba(1, 135, 108, 1)"></path><path d="M412.5 112.5L437.5 87.5M587.5 112.5L612.5 137.5L637.5 137.5L662.5 137.5M112.5 112.5L137.5 112.5M487.5 112.5L512.5 87.5M262.5 87.5L287.5 62.5M312.5 87.5L337.5 87.5L362.5 87.5L387.5 87.5L412.5 87.5L437.5 62.5M-12.5 187.5L12.5 162.5L37.5 162.5L62.5 137.5L87.5 112.5L112.5 112.5L137.5 87.5L162.5 87.5L187.5 87.5L212.5 87.5L237.5 87.5L262.5 87.5L287.5 87.5L312.5 87.5L337.5 112.5L362.5 112.5L387.5 112.5L412.5 112.5L437.5 112.5L462.5 112.5L487.5 112.5L512.5 112.5L537.5 112.5L562.5 112.5L587.5 112.5L612.5 112.5" stroke="rgba(1, 135, 108, 1)" stroke-width="4.17"></path><path d="M606.25 112.5 a6.25 6.25 0 1 0 12.5 0 a6.25 6.25 0 1 0 -12.5 0zM431.25 87.5 a6.25 6.25 0 1 0 12.5 0 a6.25 6.25 0 1 0 -12.5 0zM656.25 137.5 a6.25 6.25 0 1 0 12.5 0 a6.25 6.25 0 1 0 -12.5 0zM131.25 112.5 a6.25 6.25 0 1 0 12.5 0 a6.25 6.25 0 1 0 -12.5 0zM506.25 87.5 a6.25 6.25 0 1 0 12.5 0 a6.25 6.25 0 1 0 -12.5 0zM281.25 62.5 a6.25 6.25 0 1 0 12.5 0 a6.25 6.25 0 1 0 -12.5 0zM431.25 62.5 a6.25 6.25 0 1 0 12.5 0 a6.25 6.25 0 1 0 -12.5 0z" fill="rgba(1, 135, 108, 1)"></path><path d="M112.5 412.5L137.5 437.5L162.5 437.5M187.5 412.5L212.5 437.5L237.5 437.5L262.5 437.5M87.5 412.5L112.5 437.5L137.5 462.5M-12.5 387.5L12.5 387.5L37.5 412.5L62.5 412.5L87.5 412.5L112.5 412.5L137.5 412.5L162.5 412.5L187.5 412.5L212.5 412.5L237.5 412.5L262.5 412.5L287.5 412.5L312.5 412.5L337.5 412.5" stroke="rgba(0, 0, 0, 1)" stroke-width="4.17"></path><path d="M331.25 412.5 a6.25 6.25 0 1 0 12.5 0 a6.25 6.25 0 1 0 -12.5 0zM156.25 437.5 a6.25 6.25 0 1 0 12.5 0 a6.25 6.25 0 1 0 -12.5 0zM256.25 437.5 a6.25 6.25 0 1 0 12.5 0 a6.25 6.25 0 1 0 -12.5 0zM131.25 462.5 a6.25 6.25 0 1 0 12.5 0 a6.25 6.25 0 1 0 -12.5 0z" fill="rgba(0, 0, 0, 1)"></path><path d="M-12.5 162.5L12.5 137.5L37.5 137.5L62.5 112.5L87.5 87.5L112.5 87.5L137.5 62.5L162.5 62.5L187.5 62.5L212.5 62.5" stroke="rgba(1, 135, 108, 1)" stroke-width="4.17"></path><path d="M206.25 62.5 a6.25 6.25 0 1 0 12.5 0 a6.25 6.25 0 1 0 -12.5 0z" fill="rgba(1, 135, 108, 1)"></path></g></g><defs><mask id="SvgjsMask1028"><rect width="1440" height="560" fill="#ffffff"></rect></mask><mask id="SvgjsMask1029"><rect width="1440" height="560" fill="white"></rect><path d="M59.37 287.5 a3.13 3.13 0 1 0 6.26 0 a3.13 3.13 0 1 0 -6.26 0zM34.37 262.5 a3.13 3.13 0 1 0 6.26 0 a3.13 3.13 0 1 0 -6.26 0z" fill="black"></path><path d="M559.37 137.5 a3.13 3.13 0 1 0 6.26 0 a3.13 3.13 0 1 0 -6.26 0zM359.37 212.5 a3.13 3.13 0 1 0 6.26 0 a3.13 3.13 0 1 0 -6.26 0zM634.37 187.5 a3.13 3.13 0 1 0 6.26 0 a3.13 3.13 0 1 0 -6.26 0zM334.37 237.5 a3.13 3.13 0 1 0 6.26 0 a3.13 3.13 0 1 0 -6.26 0zM534.37 162.5 a3.13 3.13 0 1 0 6.26 0 a3.13 3.13 0 1 0 -6.26 0zM209.37 212.5 a3.13 3.13 0 1 0 6.26 0 a3.13 3.13 0 1 0 -6.26 0zM184.37 262.5 a3.13 3.13 0 1 0 6.26 0 a3.13 3.13 0 1 0 -6.26 0z" fill="black"></path><path d="M209.37 287.5 a3.13 3.13 0 1 0 6.26 0 a3.13 3.13 0 1 0 -6.26 0zM109.37 337.5 a3.13 3.13 0 1 0 6.26 0 a3.13 3.13 0 1 0 -6.26 0zM259.37 362.5 a3.13 3.13 0 1 0 6.26 0 a3.13 3.13 0 1 0 -6.26 0zM184.37 312.5 a3.13 3.13 0 1 0 6.26 0 a3.13 3.13 0 1 0 -6.26 0z" fill="black"></path><path d="M409.37 137.5 a3.13 3.13 0 1 0 6.26 0 a3.13 3.13 0 1 0 -6.26 0zM359.37 137.5 a3.13 3.13 0 1 0 6.26 0 a3.13 3.13 0 1 0 -6.26 0zM309.37 137.5 a3.13 3.13 0 1 0 6.26 0 a3.13 3.13 0 1 0 -6.26 0zM309.37 112.5 a3.13 3.13 0 1 0 6.26 0 a3.13 3.13 0 1 0 -6.26 0z" fill="black"></path><path d="M234.37 387.5 a3.13 3.13 0 1 0 6.26 0 a3.13 3.13 0 1 0 -6.26 0zM134.37 387.5 a3.13 3.13 0 1 0 6.26 0 a3.13 3.13 0 1 0 -6.26 0zM209.37 362.5 a3.13 3.13 0 1 0 6.26 0 a3.13 3.13 0 1 0 -6.26 0zM159.37 362.5 a3.13 3.13 0 1 0 6.26 0 a3.13 3.13 0 1 0 -6.26 0z" fill="black"></path><path d="M159.37 137.5 a3.13 3.13 0 1 0 6.26 0 a3.13 3.13 0 1 0 -6.26 0zM184.37 112.5 a3.13 3.13 0 1 0 6.26 0 a3.13 3.13 0 1 0 -6.26 0z" fill="black"></path><path d="M59.37 387.5 a3.13 3.13 0 1 0 6.26 0 a3.13 3.13 0 1 0 -6.26 0z" fill="black"></path><path d="M609.37 112.5 a3.13 3.13 0 1 0 6.26 0 a3.13 3.13 0 1 0 -6.26 0zM434.37 87.5 a3.13 3.13 0 1 0 6.26 0 a3.13 3.13 0 1 0 -6.26 0zM659.37 137.5 a3.13 3.13 0 1 0 6.26 0 a3.13 3.13 0 1 0 -6.26 0zM134.37 112.5 a3.13 3.13 0 1 0 6.26 0 a3.13 3.13 0 1 0 -6.26 0zM509.37 87.5 a3.13 3.13 0 1 0 6.26 0 a3.13 3.13 0 1 0 -6.26 0zM284.37 62.5 a3.13 3.13 0 1 0 6.26 0 a3.13 3.13 0 1 0 -6.26 0zM434.37 62.5 a3.13 3.13 0 1 0 6.26 0 a3.13 3.13 0 1 0 -6.26 0z" fill="black"></path><path d="M334.37 412.5 a3.13 3.13 0 1 0 6.26 0 a3.13 3.13 0 1 0 -6.26 0zM159.37 437.5 a3.13 3.13 0 1 0 6.26 0 a3.13 3.13 0 1 0 -6.26 0zM259.37 437.5 a3.13 3.13 0 1 0 6.26 0 a3.13 3.13 0 1 0 -6.26 0zM134.37 462.5 a3.13 3.13 0 1 0 6.26 0 a3.13 3.13 0 1 0 -6.26 0z" fill="black"></path><path d="M209.37 62.5 a3.13 3.13 0 1 0 6.26 0 a3.13 3.13 0 1 0 -6.26 0z" fill="black"></path></mask></defs></svg>