<svg xmlns="http://www.w3.org/2000/svg" version="1.1" xmlns:xlink="http://www.w3.org/1999/xlink" xmlns:svgjs="http://svgjs.dev/svgjs" width="1440" height="560" preserveAspectRatio="none" viewBox="0 0 1440 560"><g mask="url(&quot;#SvgjsMask1008&quot;)" fill="none"><path d="M1153.29-10.97C1007.58 7.06 926.64 333.97 680.07 336.82 433.5 339.67 443.46 266.82 206.85 266.82-29.76 266.82-146.78 336.63-266.37 336.82" stroke="rgba(133, 239, 207, 1)" stroke-width="2"></path><path d="M939.21-78.75C807.32-55.95 747.7 266.19 533.02 270.03 318.33 273.87 329.92 200.03 126.82 200.03-76.27 200.03-176.33 269.77-279.37 270.03" stroke="rgba(133, 239, 207, 1)" stroke-width="2"></path><path d="M861.01-68.47C768.41-67.8 784.34 17.06 501.61 21.11 218.89 25.16-26.79 269.49-217.18 273.11" stroke="rgba(133, 239, 207, 1)" stroke-width="2"></path><path d="M928.12-57.49C823.3-42.15 871.88 193.88 596.2 205.92 320.52 217.96 106.62 416.14-67.64 418.72" stroke="rgba(133, 239, 207, 1)" stroke-width="2"></path><path d="M1122.94-109.51C940.51-100.76 819.49 206.23 468.45 215.1 117.4 223.97-16.04 398.14-186.05 399.9" stroke="rgba(133, 239, 207, 1)" stroke-width="2"></path></g><defs><mask id="SvgjsMask1008"><rect width="1440" height="560" fill="#ffffff"></rect></mask></defs></svg>