<svg xmlns="http://www.w3.org/2000/svg" version="1.1" xmlns:xlink="http://www.w3.org/1999/xlink" xmlns:svgjs="http://svgjs.dev/svgjs" width="876" height="560" preserveAspectRatio="none" viewBox="0 0 876 560"><g mask="url(&quot;#SvgjsMask1012&quot;)" fill="none"><path d="M50.43 560.2C165.63 555.6 238.98 375.73 469.07 366.73 699.16 357.73 772.82 180.73 887.71 176.33" stroke="rgba(82, 189, 159, 1)" stroke-width="2"></path><path d="M380.53 643.3C462.1 591.27 422.94 303.13 563.66 302.39 704.38 301.65 823.63 512.71 929.93 520.79" stroke="rgba(82, 189, 159, 1)" stroke-width="2"></path><path d="M254.21 621.42C371.48 526.64 332.76 108.39 500.76 70.97 668.75 33.55 624.03 140.97 747.3 140.97 870.58 140.97 929.78 71.64 993.85 70.97" stroke="rgba(82, 189, 159, 1)" stroke-width="2"></path><path d="M599.82 605.14C675.28 530.22 632.11 208.88 750.22 207.27 868.33 205.66 953.44 448.09 1051.02 464.87" stroke="rgba(82, 189, 159, 1)" stroke-width="2"></path><path d="M46.15 574.77C150.79 539.21 170 239.03 325.1 231.85 480.21 224.67 464.58 301.85 604.06 301.85 743.53 301.85 811.11 232.38 883.01 231.85" stroke="rgba(82, 189, 159, 1)" stroke-width="2"></path></g><defs><mask id="SvgjsMask1012"><rect width="876" height="560" fill="#ffffff"></rect></mask></defs></svg>